# xmcd
#
# Track frame offsets:
#	150
#	21416
#	33206
#	49655
#	59941
#	79224
#	92876
#	106289
#	126321
#	143047
#	159932
#	173101
#	195199
#	214615
#
# Disc length: 3060 seconds
# Revision: 1
# Processed by: cddbd v1.5.2PL0 Copyright (c) Steve Scherf et al.
# Submitted via: dBpowerAMP V12.0
#
DISCID=bd0bf20e
DTITLE=Nalle and His Crazy Ivans - Closer to the Bone
DYEAR=2015
DGENRE=Blues
TTITLE0=Blow Wind Blow
TTITLE1=Baton Rouge
TTITLE2=Closer to the Bone 
TTITLE3=Don't Look Know
TTITLE4=Sugar Is Sweet
TTITLE5=Oughta Know 
TTITLE6=In the Middle of It Al
TTITLE7=Lodi
TTITLE8=Let It Be Me
TTITLE9=Cup of Sorrow
TTITLE10=Let the Four Winds Blow 
TTITLE11=What Am I Living for
TTITLE12=Four Strong Winds 
TTITLE13=En Engel Som Dig
EXTD=
EXTT0=
EXTT1=
EXTT2=
EXTT3=
EXTT4=
EXTT5=
EXTT6=
EXTT7=
EXTT8=
EXTT9=
EXTT10=
EXTT11=
EXTT12=
EXTT13=
PLAYORDER=
